PathFileType	4	(X/Y/Z)	..\data\sprint.trc
DataRate	CameraRate	NumFrames	NumMarkers	Units	OrigDataRate	OrigDataStartFrame	OrigNumFrames
250.000000	250.000000	4	51	mm	250.000000	162	324
Frame#	Time	C7			RSH			LSH			MAN			T7			LARM			LELB			LFOREARM			LWR			RARM			RELB			RFOREARM			RWR			RASI			LASI			SACR			P1			P2			P3			LTHLP			LTHLD			LTHAP			LTHAD			LLEPI			LPAT			LTIAP			LTIAD			LTILAT			LLMAL			LHEEL			LMFS			LMFL			LP1MT			LTOE			LP5MT			RTHLP			RTHLD			RTHAP			RTHAD			RLEPI			RPAT			RTIAP			RTIAD			RTILAT			RLMAL			RHEEL			RMFS			RMFL			RP1MT			RTOE			RP5MT			
		X1	Y1	Z1	X2	Y2	Z2	X3	Y3	Z3	X4	Y4	Z4	X5	Y5	Z5	X6	Y6	Z6	X7	Y7	Z7	X8	Y8	Z8	X9	Y9	Z9	X10	Y10	Z10	X11	Y11	Z11	X12	Y12	Z12	X13	Y13	Z13	X14	Y14	Z14	X15	Y15	Z15	X16	Y16	Z16	X17	Y17	Z17	X18	Y18	Z18	X19	Y19	Z19	X20	Y20	Z20	X21	Y21	Z21	X22	Y22	Z22	X23	Y23	Z23	X24	Y24	Z24	X25	Y25	Z25	X26	Y26	Z26	X27	Y27	Z27	X28	Y28	Z28	X29	Y29	Z29	X30	Y30	Z30	X31	Y31	Z31	X32	Y32	Z32	X33	Y33	Z33	X34	Y34	Z34	X35	Y35	Z35	X36	Y36	Z36	X37	Y37	Z37	X38	Y38	Z38	X39	Y39	Z39	X40	Y40	Z40	X41	Y41	Z41	X42	Y42	Z42	X43	Y43	Z43	X44	Y44	Z44	X45	Y45	Z45	X46	Y46	Z46	X47	Y47	Z47	X48	Y48	Z48	X49	Y49	Z49	X50	Y50	Z50	X51	Y51	Z51	

163	0.648	141.6686553955079	1477.60595703125	185.9203033447266	200.3427581787111	1446.050170898438	367.9178771972657	185.9674377441407	1448.23291015625	19.00065422058106	271.8096313476564	1360.345092773438	198.8865356445314	39.59949111938478	1305.541625976563	206.6101379394532	209.0891571044923	1239.805053710938	-64.65672302246097	225.985076904297	1099.225463867188	-92.51454925537112	350.9765014648439	1069.431030273438	-32.356258392334	460.4744873046877	1028.148071289063	19.78751945495606	91.95420074462893	1296.624633789063	465.0038757324221	-10.73100376129151	1201.04296875	517.2156372070315	-21.3379306793213	1051.795043945313	527.1023559570315	-56.74787902832034	925.205932617188	535.8089599609377	194.8713378906251	996.799194335938	283.9415588378907	141.8837280273438	1003.411865234375	81.96501922607425	2.152717351913453	1061.1650390625	247.7662048339845	-26.91488265991212	1041.759765625	198.3256988525392	-4.656026363372805	1028.657348632813	301.8017578125001	-52.66467666625979	984.0819702148442	251.5036468505861	25.21910476684572	709.609069824219	38.72689437866212	38.33143997192384	596.682800292969	50.67431259155276	173.0288238525391	712.4819335937502	74.5336608886719	162.923568725586	598.1187744140627	83.49849700927737	51.93169403076175	473.4410705566409	69.52158355712893	146.2216949462891	473.2830505371096	110.3942565917969	-7.680216312408451	323.0880126953126	171.8775024414063	-100.8554000854493	221.5496368408204	197.3208770751954	-91.33118438720706	287.0046386718751	111.929054260254	-222.5461273193361	120.8042907714844	169.4741821289063	-291.8269348144532	119.3003158569337	225.3835754394532	-126.7853775024415	93.39660644531253	213.0408782958986	-166.7300415039063	70.57948303222659	158.0223846435547	-76.06370544433597	41.07394027709962	243.9949951171876	-39.27650833129884	45.44085693359376	205.7072296142579	-115.2219467163087	28.78449821472169	124.1338806152344	227.7937927246095	772.9819946289067	413.4580383300784	305.6041564941407	688.6738891601565	412.1376953125002	335.3380126953126	797.3423461914067	318.8958435058595	390.7241821289065	719.9956054687502	318.4904785156251	357.914520263672	575.4718017578127	372.3567199707032	434.5721435546877	547.7962646484377	309.1535034179689	173.9817199707032	586.687927246094	279.7005004882814	71.86219787597659	637.0822753906252	249.7818603515626	168.3558349609376	622.3135375976565	359.0649414062501	-53.65029144287112	695.829040527344	311.6011352539064	-55.60078811645511	771.574340820313	260.4226074218751	-97.83847808837896	599.9479980468752	263.5142822265626	-117.3945846557618	652.7613525390627	316.4238586425782	-169.8335571289063	563.5434570312502	221.3513946533204	-159.8557739257813	538.436462402344	265.6181030273439	-185.9940948486329	601.9477539062502	340.1098632812501	
164	0.652	179.4261322021485	1477.924194335938	186.7207336425782	236.2835693359376	1446.925415039063	368.7706298828126	223.5550994873048	1451.263061523438	21.31161117553712	310.0801696777345	1361.6728515625	201.2765960693361	79.27079772949222	1304.229736328125	205.8594512939454	253.3395233154298	1242.887084960938	-61.32607269287112	277.5833129882814	1103.018920898438	-86.22906494140628	404.7846374511721	1083.611083984375	-25.96465301513673	517.1980590820315	1052.527709960938	27.3901882171631	123.5951156616212	1302.876831054688	466.305603027344	16.58360862731934	1212.501342773438	519.491149902344	-1.168616175651551	1063.8388671875	528.6861572265627	-41.8949317932129	939.064086914063	536.7312622070315	216.497772216797	1000.818237304688	286.3532714843751	182.1910858154297	1001.302551269532	81.00333404541018	42.48726272583009	1060.429565429688	248.3632965087892	13.71605396270753	1040.662109375	199.1440887451173	35.74500656127931	1028.2578125	302.7401733398439	-12.1214418411255	983.2666015625005	252.7123565673829	51.94318008422854	708.0749511718752	40.30500411987306	59.15213394165042	594.7268676757815	52.54288482666018	200.5305633544923	703.9858398437502	73.645378112793	182.2981719970704	589.497741699219	83.2377853393555	66.04846191406253	469.9992370605471	70.3674011230469	158.3470153808594	464.5832824707034	111.6864929199219	-0.3219760060310365	322.2174377441407	170.9786834716797	-96.37296295166021	223.2202606201173	195.4285125732423	-84.05327606201175	288.0708618164064	110.7533950805665	-220.0166473388673	125.313591003418	166.3556213378907	-289.269012451172	128.0090942382813	221.080291748047	-125.382682800293	94.96041107177737	210.3389129638673	-166.0300750732422	72.66828155517581	155.7223510742188	-72.69950103759768	41.56226730346681	241.6586761474611	-40.92107391357423	45.66359329223634	206.2490386962892	-115.1098785400391	28.67028808593751	123.7863311767579	274.9332275390626	780.974975585938	412.8489074707034	357.0765075683595	700.9922485351565	410.2496337890627	380.0783081054689	811.717407226563	318.6001892089845	439.9730224609377	736.875671386719	317.2596130371095	415.3156738281252	590.0706787109377	370.0344238281251	493.6519165039065	567.203308105469	306.7320251464845	232.1085968017579	588.6776123046877	274.7810974121095	112.7941665649415	626.8980102539065	257.8646850585939	222.5963134765626	623.6000976562502	357.109832763672	-6.566332340240482	676.7935180664065	312.2973022460939	-15.83127784729005	752.7503051757815	262.0879211425782	-40.88129806518556	577.4594726562502	264.2026672363282	-65.33532714843753	627.8804931640627	317.3706665039064	-109.0133056640626	534.7751464843752	221.6484527587892	-83.54254150390628	515.7247314453127	266.331024169922	-128.1743469238282	570.2173461914065	340.9111633300782	
165	0.656	217.0876922607423	1478.176025390625	187.7093353271485	271.9784545898439	1448.195434570313	370.0020446777345	261.8163452148439	1454.374145507813	23.45972061157227	348.2245178222657	1363.275756835938	204.0947265625001	118.9949340820313	1302.87646484375	205.076629638672	297.6318664550782	1246.31103515625	-57.91197586059573	328.0587768554689	1107.575561523438	-79.77164459228518	456.6604309082034	1098.72265625	-19.19964218139649	571.2263183593752	1077.900756835938	34.83233642578126	155.2229156494141	1309.963134765625	467.4595336914065	43.81270217895509	1224.614379882813	520.7396240234377	19.42960166931153	1077.0556640625	530.0050048828127	-26.01305389404298	953.9220581054692	537.1550292968752	277.1002197265626	999.625366210938	286.2649841308595	223.4283752441407	998.4697875976567	80.259391784668	83.26113128662112	1059.591186523438	248.1899719238282	54.97042465209964	1039.431030273438	199.2946166992189	76.84748840332034	1028.118896484375	303.5772705078126	28.90760231018068	982.565551757813	253.4722900390626	78.98402404785159	707.2438964843752	41.76511001586915	79.95854949951175	593.6745605468752	53.18741989135745	227.9040374755861	694.7815551757815	72.52029418945315	202.091766357422	580.8524169921877	83.77388000488284	79.28303527832034	468.3098449707034	71.25228118896487	169.7792358398438	456.0631103515627	113.3811035156251	7.346309661865238	322.685028076172	169.8440246582032	-91.5715026855469	226.3971710205079	193.3487548828126	-77.46205902099612	291.7750244140626	109.3223037719727	-217.0982818603517	131.4021911621094	162.8056182861329	-285.8814392089845	137.7886810302735	215.8562011718751	-123.2306442260743	96.88510131835943	207.7550659179689	-164.6251678466797	75.11997222900393	153.0991210937501	-71.90799713134768	41.92436981201173	241.6938781738282	-42.79518127441408	45.80357360839845	206.567108154297	-114.781234741211	28.63643074035646	123.5426254272462	320.5809631347657	788.456420898438	411.9273376464846	406.7041931152346	713.2132568359377	408.1878051757815	423.8755187988284	825.9724121093755	318.3026123046876	487.9815063476565	753.7609863281252	315.7583312988282	471.4313659667971	604.736022949219	366.6467285156251	551.3367919921877	587.197692871094	304.4974365234376	286.159637451172	588.3282470703127	276.0811462402345	165.5303802490235	618.0769042968752	256.9591674804689	276.3692321777345	624.6680908203127	354.7197265625001	42.01335906982423	656.316345214844	312.7865295410157	25.43077278137208	731.7756958007815	263.8858947753907	17.94919586181641	554.6802368164065	264.8130798339845	-11.11793613433838	602.0140380859377	318.4758911132814	-45.66674804687501	506.512390136719	222.2152099609376	-18.80165481567384	486.5595703125002	266.7021789550782	-67.44747161865237	538.3120117187502	341.985809326172	
166	0.66	254.9342651367189	1478.54248046875	188.1156768798829	306.2385559082032	1450.242065429688	370.1024780273439	300.581024169922	1457.429443359375	25.80671119689943	386.3928833007815	1365.005615234375	206.9694824218751	158.650863647461	1301.55517578125	203.8283081054689	341.8995666503907	1249.790893554688	-54.18608093261722	377.7345275878907	1112.648193359375	-73.58496856689456	507.2477722167971	1114.731689453125	-13.2721757888794	622.7815551757815	1104.641235351563	41.78785324096681	186.7644653320313	1318.046875	468.6921691894534	71.5124435424805	1237.788330078125	522.5228271484377	40.82273483276369	1091.335693359375	531.3208007812502	-8.986256599426273	969.6376953125005	537.039001464844	314.1113891601564	1001.21435546875	287.9212036132814	265.5835571289064	995.334350585938	80.00787353515628	124.1984405517579	1059.35791015625	247.2257080078126	96.75531005859381	1038.272705078125	198.7828826904298	117.9534988403321	1028.18017578125	303.3457031250001	70.37148284912112	982.019653320313	253.697967529297	106.7984008789063	707.2327880859377	42.76441955566408	101.7618255615235	593.8103637695315	53.786491394043	255.0173187255861	684.5982055664065	73.23674774169925	221.3508605957032	573.463562011719	85.91977691650393	91.58174896240237	469.4513244628909	71.98463439941409	179.6027984619141	448.2723388671877	115.8638534545899	15.71138668060303	325.5722045898439	168.9165802001954	-85.29182434082034	231.091278076172	190.8506622314454	-70.64468383789065	297.9674377441407	107.6689529418946	-213.3953552246095	138.7203216552735	159.3027496337891	-280.4562377929689	148.7863159179688	211.0589904785157	-120.5630798339844	98.97086334228521	205.6126556396486	-162.3704986572266	78.25623321533206	150.5358428955079	-76.94245910644534	41.82403945922853	243.3554077148439	-44.7599563598633	45.95299911499025	207.5323791503907	-115.0280685424805	28.94951820373537	123.348373413086	365.3181152343751	795.408325195313	411.1282653808596	455.6042175292971	725.3215942382815	406.2578430175784	466.6909484863284	839.9440307617192	318.1428527832032	534.747741699219	770.485473632813	314.4135742187501	526.6347656250002	619.7712402343752	363.9636230468751	607.4064941406252	607.2449340820315	301.5787963867189	341.6062316894532	589.2102050781252	275.0576477050782	219.0074462890626	608.2482910156252	256.0526733398439	329.8751831054689	625.3755493164065	352.3443603515626	92.47846984863284	634.7823486328127	313.6401367187501	67.90626525878909	708.797790527344	265.1246948242189	78.59277343750003	531.7490234375002	265.2205200195314	45.43164443969728	575.8748779296877	319.7056884765626	20.35791397094727	478.7980651855471	223.2251892089845	46.34548950195314	458.7478637695315	266.7144165039064	-3.862900733947756	506.7305603027346	343.096405029297	
